<svg width="64" height="64" viewBox="0 0 64 64" fill="none" xmlns="http://www.w3.org/2000/svg">
<g clip-path="url(#clip0_1_4941)">
<path d="M0 55.4027C0 59.9047 3.69475 63.5536 8.25225 63.5536H55.7475C60.3058 63.5536 64 59.9042 64 55.4027V8.49054C64 3.98825 60.3052 0.339355 55.7477 0.339355H8.2525C3.69425 0.339355 0 3.98875 0 8.49029V55.4025V55.4027Z" fill="#563D7C"/>
<path d="M26.5395 28.3013V19.3493H34.5172C35.2772 19.3493 36.0097 19.4118 36.7152 19.537C37.4207 19.6619 38.045 19.8852 38.5877 20.2069C39.1302 20.5287 39.5645 20.9754 39.8902 21.547C40.2157 22.1189 40.3787 22.8515 40.3787 23.7447C40.3787 25.3529 39.8902 26.5145 38.9132 27.2291C37.9365 27.944 36.6882 28.3013 35.1685 28.3013H26.5395ZM18.0187 12.8094V51.0836H36.7967C38.5335 51.0836 40.225 50.8693 41.8712 50.4404C43.5175 50.0115 44.9827 49.3504 46.2672 48.457C47.5515 47.5636 48.5737 46.411 49.3335 44.9995C50.0935 43.5878 50.4732 41.9171 50.4732 39.9873C50.4732 37.5928 49.8852 35.547 48.7095 33.8496C47.5335 32.1519 45.7515 30.9637 43.3635 30.2846C45.1002 29.4629 46.412 28.4085 47.2985 27.122C48.1847 25.8354 48.628 24.2274 48.628 22.2974C48.628 20.5106 48.3295 19.0098 47.7325 17.7946C47.1355 16.5797 46.2942 15.6058 45.2087 14.8732C44.1235 14.1406 42.821 13.6134 41.3012 13.2919C39.7817 12.9701 38.0992 12.8094 36.254 12.8094H18.0187ZM26.5395 44.5437V34.037H35.8197C37.665 34.037 39.1485 34.4568 40.2702 35.2968C41.3917 36.1367 41.9527 37.5392 41.9527 39.5048C41.9527 40.5056 41.7807 41.3274 41.437 41.9706C41.0932 42.6139 40.632 43.1233 40.053 43.4984C39.4742 43.8737 38.8047 44.1417 38.045 44.3027C37.285 44.4632 36.4892 44.5437 35.657 44.5437H26.5395Z" fill="white"/>
</g>
<defs>
<clipPath id="clip0_1_4941">
<rect width="64" height="63.2143" fill="white" transform="translate(0 0.339355)"/>
</clipPath>
</defs>
</svg>
